<?xml version="1.0" standalone="no"?><!DOCTYPE svg PUBLIC "-//W3C//DTD SVG 1.1//EN" "http://www.w3.org/Graphics/SVG/1.1/DTD/svg11.dtd"><svg width="16" height="16" viewBox="0 0 16 16" version="1.1" xmlns="http://www.w3.org/2000/svg" xmlns:xlink="http://www.w3.org/1999/xlink"><defs><style type="text/css"><![CDATA[
@font-face { font-family: ifont; src: url("http://at.alicdn.com/t/font_1442373896_4754455.eot?#iefix") format("embedded-opentype"), url("http://at.alicdn.com/t/font_1442373896_4754455.woff") format("woff"), url("http://at.alicdn.com/t/font_1442373896_4754455.ttf") format("truetype"), url("http://at.alicdn.com/t/font_1442373896_4754455.svg#ifont") format("svg"); }

]]></style></defs><g class="transform-group"><g transform="scale(0.015625, 0.015625)"><path d="M800.38406 119.588679c-55.746652-13.621229-113.040543-1.88493-129.09417 1.322112-1.228991 0.12075-2.403746 1.333368-3.547803 1.575892-0.542352 0.12075-0.886183 0.716314-0.886183 0.716314-15.855106 4.672416-27.414373 19.947308-27.414373 37.999452 0 21.511943 16.71059 39.211047 37.59934 39.211047 0 0 20.262486-2.821255 34.025954-8.442276 13.646811-5.730515 129.033795-4.26514 186.379874 96.110965 31.251771 73.254398 13.736862 122.285091 11.564383 130.164548 0 0-7.443529 19.032472-7.443529 37.768185 0 21.633716 16.71059 35.222199 37.432541 35.222199 17.339924 0 31.874965-2.457981 36.137035-33.006741l0.229221 0C1036.930497 244.341984 900.081713 143.833873 800.38406 119.588679zM377.192711 540.058033c-157.676136 19.230993-139.471518 173.266206-139.471518 173.266206s-1.603521 48.776913 42.295292 73.617671c92.260264 52.105728 187.265034 20.553105 235.281631-44.071751C563.318806 678.212556 535.158443 520.948813 377.192711 540.058033zM337.418846 756.23863c-29.416983 3.604084-53.16792-14.096043-53.16792-39.784098 0-25.578562 21.088294-52.358485 50.538023-55.565527 33.822316-3.350304 55.855122 16.960277 55.855122 42.660612C390.644071 729.116923 366.781594 752.767576 337.418846 756.23863zM430.395424 673.66089c-9.985422 7.768941-22.237467 6.689353-27.500331-2.63399-5.495154-9.080819-3.434216-23.660886 6.637164-31.309076 11.672854-9.080819 23.836895-6.458085 29.105898 2.645247C443.928648 651.675156 440.150602 665.649426 430.395424 673.66089zM819.155589 434.766988c12.7023 0 23.524786-9.80839 25.322735-22.592554 0.231267-0.958838 0.343831-1.795902 0.343831-2.876514 19.258623-180.562379-141.905964-149.483546-141.905964-149.483546-14.309914 0-25.76071 12.06785-25.76071 27.110451 0 14.82259 11.449773 26.901697 25.76071 26.901697 115.77891-26.647917 90.230024 94.050026 90.230024 94.050026C793.142122 422.809655 804.7853 434.766988 819.155589 434.766988zM742.346225 501.452783c-37.228903-7.538697-19.114336-28.443819-19.114336-28.443819s36.426631-62.630433-7.212262-108.167558c-54.111408-56.392358-185.584766 7.1744-185.584766 7.1744-50.215682 16.244986-36.882002-7.416923-29.791513-47.686069 0-47.432289-15.589047-127.740336-149.344377-80.295767-133.615137 47.675836-248.367671 214.747969-248.367671 214.747969C23.150256 569.802474 33.742499 655.598512 33.742499 655.598512c19.909445 189.422164 212.9316 241.417375 363.05676 253.727749 157.938102 12.927427 371.132692-56.766888 435.747315-199.936635C897.193943 565.989635 779.721461 509.222747 742.346225 501.452783zM408.507928 855.91991c-156.826791 7.648191-283.568381-74.345242-283.568381-183.460382 0-109.225657 126.741589-196.816574 283.568381-204.355271 156.87591-7.538697 283.875372 59.874669 283.875372 168.869059C692.3833 746.088456 565.379745 848.492754 408.507928 855.91991z" fill="#a9b7b7"></path></g></g></svg>