<?xml version="1.0" standalone="no"?><!DOCTYPE svg PUBLIC "-//W3C//DTD SVG 1.1//EN" "http://www.w3.org/Graphics/SVG/1.1/DTD/svg11.dtd"><svg width="200" height="200" viewBox="0 0 200 200" version="1.1" xmlns="http://www.w3.org/2000/svg" xmlns:xlink="http://www.w3.org/1999/xlink"><defs><style type="text/css"><![CDATA[
@font-face { font-family: ifont; src: url("http://at.alicdn.com/t/font_1442373896_4754455.eot?#iefix") format("embedded-opentype"), url("http://at.alicdn.com/t/font_1442373896_4754455.woff") format("woff"), url("http://at.alicdn.com/t/font_1442373896_4754455.ttf") format("truetype"), url("http://at.alicdn.com/t/font_1442373896_4754455.svg#ifont") format("svg"); }

]]></style></defs><g class="transform-group"><g transform="scale(0.1953125, 0.1953125)"><path d="M858.290087 836.278539c-38.947617-102.33767-138.4448-181.319235-262.687165-207.19527 71.234783-35.403687 120.306643-108.713183 120.306643-193.669565 0-119.496348-96.8704-216.375652-216.375652-216.375652S283.158261 315.926261 283.158261 435.422609c0 86.924243 51.378087 161.667339 125.301983 196.073739C289.373496 659.651896 194.595617 736.995061 156.805565 836.278539 76.176696 750.289252 26.713043 634.728626 26.713043 507.547826 26.713043 241.993461 241.993461 26.713043 507.547826 26.713043s480.834783 215.280417 480.834783 480.834783C988.382609 634.728626 938.918957 750.289252 858.290087 836.278539zM806.5024 884.005843C724.413217 949.283617 620.579617 988.382609 507.547826 988.382609s-216.865391-39.098991-298.954574-104.376765C235.430957 765.48007 358.978783 675.84 507.547826 675.84S779.664696 765.48007 806.5024 884.005843zM331.241739 435.422609c0-92.943583 75.348591-168.292174 168.292174-168.292174S667.826087 342.479026 667.826087 435.422609s-75.348591 168.292174-168.292174 168.292174S331.241739 528.366191 331.241739 435.422609z" fill="#272636"></path></g></g></svg>