<?xml version="1.0" standalone="no"?><!DOCTYPE svg PUBLIC "-//W3C//DTD SVG 1.1//EN" "http://www.w3.org/Graphics/SVG/1.1/DTD/svg11.dtd"><svg width="16" height="16" viewBox="0 0 16 16" version="1.1" xmlns="http://www.w3.org/2000/svg" xmlns:xlink="http://www.w3.org/1999/xlink"><defs><style type="text/css"><![CDATA[
@font-face { font-family: ifont; src: url("http://at.alicdn.com/t/font_1442373896_4754455.eot?#iefix") format("embedded-opentype"), url("http://at.alicdn.com/t/font_1442373896_4754455.woff") format("woff"), url("http://at.alicdn.com/t/font_1442373896_4754455.ttf") format("truetype"), url("http://at.alicdn.com/t/font_1442373896_4754455.svg#ifont") format("svg"); }

]]></style></defs><g class="transform-group"><g transform="scale(0.015625, 0.015625)"><path d="M511.996418 981.610564c-23.362081 0-45.421492-5.304819-62.114686-14.934131L149.018453 793.100166c-16.694217-9.633405-32.321126-26.072819-44.002167-46.291302-11.68104-20.218484-18.113543-41.962717-18.113543-61.22748L86.902744 338.420663c0-19.267832 6.432503-41.014112 18.113543-61.232596s27.307949-36.656875 44.002167-46.286186L449.881732 57.323567c16.693194-9.631358 38.752606-14.936177 62.114686-14.936177 23.363104 0 45.422516 5.304819 62.11264 14.937201L874.986663 230.901881c16.693194 9.629311 32.318056 26.067702 43.99705 46.286186 11.680017 20.218484 18.11252 41.964764 18.11252 61.231573l0 347.150488c0 19.266809-6.432503 41.013089-18.113543 61.232596-11.680017 20.217461-27.307949 36.658921-44.00319 46.295396L574.108035 966.676433C557.417911 976.306768 535.359522 981.610564 511.996418 981.610564L511.996418 981.610564zM511.996418 62.854537c-19.541055 0-38.452777 4.446265-51.886741 12.196787L159.245376 248.629637c-28.119431 16.220427-51.876508 57.33994-51.876508 89.791026l0 347.160721c0 32.44597 23.757077 73.566506 51.877531 89.792049l300.863279 173.575244c13.433964 7.750521 32.346709 12.195763 51.887764 12.195763 19.542078 0 38.451754-4.445242 51.883671-12.195763L864.750531 775.37241c28.120454-16.23066 51.879578-57.355289 51.879578-89.801259L916.630109 338.420663c0-32.451086-23.754007-73.571622-51.870368-89.791026L563.881113 75.051323C550.448172 67.299779 531.537474 62.854537 511.996418 62.854537L511.996418 62.854537zM610.506013 512.00307c0 110.667495-89.783863 200.384843-200.542432 200.384843-110.750383 0-200.534246-89.717348-200.534246-200.384843L209.429335 359.053586c0-26.201755 21.256116-47.449685 47.488571-47.449685 26.227338 0 47.483454 21.237697 47.483454 47.449685l0 152.935158c0 58.254775 47.264467 105.485473 105.562221 105.485473 58.301847 0 105.567337-47.229674 105.567337-105.485473L515.530918 359.053586c0-26.201755 21.264303-47.449685 47.483454-47.449685 26.223245 0 47.478338 21.237697 47.478338 47.449685l0 152.948461L610.506013 512.002047zM814.570665 664.935158c0 26.203802-21.251 47.451732-47.478338 47.451732-26.229384 0-47.492664-21.24793-47.492664-47.451732L719.599663 359.053586c0-26.201755 21.263279-47.449685 47.492664-47.449685 26.228361 0 47.478338 21.237697 47.478338 47.449685L814.570665 664.935158z" fill="#a9b7b7"></path></g></g></svg>