<?xml version="1.0" standalone="no"?><!DOCTYPE svg PUBLIC "-//W3C//DTD SVG 1.1//EN" "http://www.w3.org/Graphics/SVG/1.1/DTD/svg11.dtd"><svg width="16" height="16" viewBox="0 0 16 16" version="1.1" xmlns="http://www.w3.org/2000/svg" xmlns:xlink="http://www.w3.org/1999/xlink"><defs><style type="text/css"><![CDATA[
@font-face { font-family: ifont; src: url("http://at.alicdn.com/t/font_1442373896_4754455.eot?#iefix") format("embedded-opentype"), url("http://at.alicdn.com/t/font_1442373896_4754455.woff") format("woff"), url("http://at.alicdn.com/t/font_1442373896_4754455.ttf") format("truetype"), url("http://at.alicdn.com/t/font_1442373896_4754455.svg#ifont") format("svg"); }

]]></style></defs><g class="transform-group"><g transform="scale(0.015625, 0.015625)"><path d="M166.920904 451.3792 165.104417 445.78727 163.653009 438.458991 162.637913 434.44313 162.637913 429.412174 162.637913 423.38393 162.637913 417.93447 164.383165 411.469913 166.199652 404.577948 168.523687 397.401043 171.68473 389.378226 175.86087 381.043757 181.737739 372.682574 181.737739 366.823513 182.325426 361.356243 183.189148 353.903304 185.735791 345.586643 188.059826 336.539826 189.91193 332.363687 192.048974 328.490296 194.809322 324.189496 197.792278 321.010643 197.792278 315.151583 197.792278 308.517843 197.792278 300.352557 199.528626 289.711861 201.273878 277.36153 204.399304 262.589217 208.6912 247.229217 211.878957 238.743374 215.04 229.554087 218.485983 220.952487 222.626504 211.772104 226.847165 201.710191 231.700035 192.24487 237.1584 182.182957 244.05927 172.129948 247.211409 166.395548 250.621774 161.64953 257.994574 151.026643 265.545461 140.412661 274.191583 129.49593 283.416487 118.855235 293.442783 108.392626 303.896487 97.618365 316.531757 85.989287 324.599096 78.945948 334.367165 71.341635 344.277704 64.601043 355.025252 58.136487 365.345391 52.402087 376.956661 47.664974 389.306991 41.761391 401.586087 37.74553 413.856278 33.5872 427.079235 29.437774 440.293287 26.27673 454.237496 23.676661 468.324174 21.388243 482.197148 19.51833 496.141357 17.630609 510.958191 16.802504 525.053774 16.802504 539.648 16.802504 554.749774 16.802504 569.344 18.654609 584.009461 20.399861 598.995478 21.97593 612.850643 25.279443 627.533913 28.413774 641.300035 31.993322 656.366191 36.026991 670.16793 40.906574 683.381983 46.498504 697.468661 52.402087 710.353252 58.866643 722.846052 66.025739 735.098435 73.9328 745.694609 81.252174 750.556383 85.410504 755.712 88.429078 765.515687 96.754643 773.787826 104.804174 781.997635 113.138643 790.064974 122.32793 796.689809 131.223374 804.525635 140.412661 810.037426 150.305391 815.602643 159.076174 821.524035 169.280557 826.385809 178.176 834.649043 196.990887 838.727235 206.732243 841.888278 215.779061 845.040417 225.54713 847.872 234.736417 849.902191 242.634574 852.448835 251.96633 856.963339 268.617461 859.821635 283.122643 861.673739 297.191513 863.276522 308.517843 865.823165 325.747757 866.393043 328.490296 868.423235 331.651339 873.8816 340.555687 877.3632 346.557217 880.488626 352.897113 884.486678 359.6288 887.977183 367.696139 890.212174 376.0128 892.678678 385.050713 894.584209 394.373565 895.439026 398.959304 896.169183 404.577948 896.169183 409.45753 895.439026 414.337113 895.439026 420.383165 893.987617 426.25113 891.378643 437.59527 888.404591 443.338574 886.223026 449.80313 886.223026 451.3792 887.25593 453.391583 890.212174 458.1376 903.150191 477.237426 913.381287 491.58233 918.26087 501.20793 924.867896 511.679443 930.593391 523.183861 937.218226 535.498574 943.825252 549.300313 951.251478 564.954157 955.427617 574.553043 959.2832 583.893704 962.613426 593.795339 965.89913 602.699687 968.365635 612.031443 970.912278 620.802226 974.100035 637.880765 976.637774 655.395617 978.383026 670.906991 978.383026 679.357217 978.383026 686.258087 978.383026 692.731548 977.225461 700.505043 975.560348 713.843757 973.227409 725.891339 969.674574 736.781357 968.365635 741.23353 965.89913 746.55833 963.797704 750.298157 961.037357 754.883896 958.561948 757.777809 955.427617 761.499826 952.685078 764.500591 949.702122 767.091757 946.140383 768.67673 942.934817 770.261704 940.334748 771.116522 938.04633 771.116522 936.327791 771.116522 933.763339 770.261704 928.839235 767.813009 926.604243 766.228035 924.280209 764.500591 921.715757 762.212174 919.124591 759.638817 914.823791 754.883896 909.757217 748.152209 905.759165 741.23353 901.770017 735.668313 897.869913 729.203757 892.402643 717.708243 886.223026 705.776417 885.501774 705.357913 884.486678 705.357913 881.940035 707.23673 880.488626 710.362157 878.093357 714.262261 873.8816 725.891339 867.568417 742.4 859.438748 762.212174 853.312557 772.122713 846.883617 782.451757 839.306017 794.07193 831.247583 805.442783 827.107061 810.589496 822.085009 816.172522 810.580591 827.53447 811.595687 828.540661 813.162852 830.125635 818.897252 833.562713 842.867757 845.040417 853.312557 850.917287 863.276522 856.660591 873.160348 863.8464 881.940035 871.326052 886.223026 874.647374 889.428591 878.520765 892.678678 882.95513 895.439026 887.843617 896.899339 891.877287 898.715826 896.747965 899.445983 900.888487 900.3008 905.794783 899.445983 909.098296 899.445983 912.366191 898.715826 915.856696 896.899339 918.973217 896.169183 921.439722 894.584209 924.413774 890.212174 930.34407 886.223026 935.098991 883.0976 938.642922 880.488626 941.269704 873.8816 946.140383 866.393043 950.316522 858.405843 954.350191 849.902191 958.187965 840.321113 961.892174 835.245635 963.494957 830.650991 964.803896 819.618504 967.377252 808.149704 969.808139 796.689809 972.274643 784.170296 974.278122 771.258991 974.821287 758.02713 976.415165 744.973357 976.415165 731.171617 976.415165 716.995896 976.415165 702.170157 975.551443 688.377322 974.278122 673.578296 972.274643 658.832696 970.680765 643.285704 968.508104 628.255165 964.803896 613.571896 961.892174 598.995478 957.760557 584.009461 952.453565 569.344 948.001391 561.641739 945.410226 554.749774 942.934817 550.395548 941.269704 546.103652 940.397078 540.520626 940.397078 533.9136 940.397078 519.818017 939.373078 512.667826 938.642922 503.478539 937.63673 497.592765 942.934817 489.53433 948.001391 478.644313 953.317287 466.578922 959.933217 459.250643 963.494957 451.628522 966.362157 434.701357 973.254122 425.51207 975.551443 415.88647 978.160417 402.529948 980.715965 394.17767 981.428313 385.308939 982.15847 376.092939 983.18247 365.345391 983.618783 355.025252 983.618783 344.277704 983.618783 321.438052 983.618783 296.630539 983.18247 272.597704 980.715965 260.398748 979.024139 248.6272 977.287791 237.1584 975.551443 225.680696 973.254122 215.04 969.808139 204.399304 967.377252 194.809322 963.494957 185.735791 959.933217 177.312278 955.86393 169.975096 951.429565 162.637913 946.140383 160.171409 943.531409 156.903513 940.397078 154.428104 937.63673 152.184209 934.520209 150.145113 931.323548 148.551235 928.189217 146.262817 921.439722 145.434713 917.984835 144.410713 914.102539 144.410713 910.558609 145.434713 906.50713 145.434713 902.49127 146.262817 898.448696 146.262817 896.017809 146.262817 890.434783 146.663513 886.10727 148.551235 881.200974 150.145113 876.348104 153.04793 870.453426 155.158261 868.173913 156.903513 865.600557 161.480348 859.999722 165.104417 857.096904 168.523687 855.093426 171.68473 852.52007 176.733496 850.917287 180.722643 848.522017 185.735791 845.913043 191.470191 844.212313 197.204591 842.449252 203.820522 841.042365 210.142609 840.169739 217.613357 839.181357 225.680696 838.59367 227.826643 837.863513 228.254052 837.863513 229.278052 836.990887 229.278052 836.020313 227.826643 833.999026 223.49913 831.986643 212.751583 822.645983 205.55687 816.920487 197.204591 809.601113 188.789983 801.426922 180.001391 790.9376 169.975096 779.166052 166.199652 772.835061 161.186504 766.228035 156.903513 758.605913 153.04793 750.298157 147.829983 742.4 144.410713 733.353183 140.385948 724.31527 136.343374 714.262261 133.378226 704.645565 130.608974 692.731548 129.736348 692.277426 128.908243 692.277426 128.463026 691.422609 127.44793 691.422609 125.7472 692.277426 124.874574 692.731548 123.717009 694.726122 123.280696 697.165913 122.40807 699.320765 120.885426 702.900313 115.943513 711.688904 113.39687 716.986991 109.372104 721.581635 105.044591 727.164661 100.325287 733.353183 95.312139 738.820452 89.43527 744.118539 83.950191 749.131687 77.957565 753.040696 71.341635 757.199026 65.028452 759.638817 57.5488 761.499826 50.211617 762.212174 49.490365 762.212174 48.466365 762.212174 46.792348 761.499826 45.492313 758.605913 43.310748 757.199026 40.479165 750.298157 38.733913 746.55833 36.846191 741.23353 35.28793 735.668313 34.450922 730.192139 32.126887 717.708243 31.254261 710.362157 31.254261 702.900313 31.254261 686.258087 32.126887 668.315826 33.578296 659.126539 35.28793 649.652313 36.846191 639.456835 39.606539 629.982609 42.731965 619.056974 45.928626 608.451896 50.211617 597.526261 54.236383 587.045843 59.8016 576.414052 65.028452 564.954157 71.341635 554.1888 78.794574 542.541913 86.381078 532.0704 94.297043 520.450226 100.90407 512.400696 109.372104 503.068939 118.267548 493.737183 122.40807 489.293913 127.44793 484.262957 134.749496 477.923061 142.238052 471.485217 154.428104 460.568487 163.653009 453.8368Z" fill="#a9b7b7"></path></g></g></svg>