<?xml version="1.0" standalone="no"?><!DOCTYPE svg PUBLIC "-//W3C//DTD SVG 1.1//EN" "http://www.w3.org/Graphics/SVG/1.1/DTD/svg11.dtd"><svg width="16" height="16" viewBox="0 0 16 16" version="1.1" xmlns="http://www.w3.org/2000/svg" xmlns:xlink="http://www.w3.org/1999/xlink"><defs><style type="text/css"><![CDATA[
@font-face { font-family: ifont; src: url("http://at.alicdn.com/t/font_1442373896_4754455.eot?#iefix") format("embedded-opentype"), url("http://at.alicdn.com/t/font_1442373896_4754455.woff") format("woff"), url("http://at.alicdn.com/t/font_1442373896_4754455.ttf") format("truetype"), url("http://at.alicdn.com/t/font_1442373896_4754455.svg#ifont") format("svg"); }

]]></style></defs><g class="transform-group"><g transform="scale(0.015625, 0.015625)"><path d="M906.332 421.495l-63.75 0c-3.299-12.053-7.355-24.191-12.398-36.865l-3.729-8.961c-4.939-11.379-10.533-22.586-16.697-33.377l45.066-45.066c4.645-4.628 7.199-10.792 7.199-17.337 0-6.544-2.557-12.691-7.199-17.336l-93.363-93.345c-9.289-9.272-25.434-9.272-34.688 0l-45.066 45.066c-10.947-6.233-22.498-11.967-35.398-17.561l-8.375-3.42c-11.516-4.541-23.395-8.512-35.43-11.828l0-63.713c0-13.52-11-24.519-24.537-24.519L445.944 93.233c-13.537 0-24.536 11.016-24.536 24.519l0 63.715c-12.053 3.316-23.932 7.27-35.414 11.829l-10.359 4.3c-11.361 4.921-22.568 10.515-33.411 16.68l-45.066-45.066c-9.272-9.272-25.417-9.272-34.689 0l-93.345 93.345c-4.627 4.628-7.184 10.792-7.184 17.336 0 6.545 2.539 12.691 7.184 17.337l45.066 45.066c-6.233 10.947-12.018 22.585-17.732 35.811l-3.281 7.96c-4.559 11.517-8.513 23.379-11.811 35.432l-63.749 0c-13.52 0-24.519 11.016-24.519 24.519l0 132.006c0 13.502 10.999 24.501 24.519 24.501l63.749 0c3.332 12.104 7.408 24.277 12.483 37.072l3.661 8.771c4.938 11.413 10.533 22.585 16.697 33.342l-45.066 45.084c-9.566 9.549-9.566 25.106 0 34.672l93.345 93.327c9.272 9.237 25.417 9.29 34.689 0l45.066-45.066c10.827 6.183 21.981 11.776 33.257 16.663l7.667 3.194 2.884 1.157c11.499 4.559 23.362 8.513 35.397 11.794l0 63.715c0 13.52 10.998 24.519 24.536 24.519l132.023 0c13.537 0 24.535-11.016 24.535-24.519l0-63.715c12.088-3.316 24.209-7.391 36.812-12.363l9.014-3.729c11.379-4.938 22.568-10.532 33.395-16.715l45.066 45.066c9.254 9.237 25.398 9.29 34.689 0l93.361-93.327c9.566-9.549 9.566-25.124 0-34.672l-45.066-45.083c6.182-10.844 11.914-22.327 17.406-35.052l1.467-3.453 2.123-5.284c4.576-11.568 8.531-23.431 11.811-35.397l63.75 0c13.537 0 24.535-10.981 24.535-24.501L930.903 446.014C930.852 432.511 919.852 421.495 906.332 421.495zM902.084 573.754l-82.053 0-2.607 11.068c-3.418 14.384-7.926 28.681-13.916 43.823l-1.416 3.506-2.021 4.748c-5.904 13.658-12.848 26.971-20.617 39.524l-5.975 9.687 58.018 58.017-87.354 87.319-58.016-57.982-9.688 5.958c-12.656 7.787-25.988 14.712-41.406 21.428l-2.92 1.208-4.781 1.935c-13.779 5.422-28.094 9.946-42.562 13.399l-11.053 2.642 0 81.966L450.174 902l0-81.967-11.052-2.642c-14.486-3.453-28.818-7.978-45.118-14.436l-3.954-1.624-3.057-1.295c-13.605-5.906-26.901-12.847-39.558-20.616l-9.688-5.958-57.999 57.981-87.353-87.318 58.017-58.017-5.974-9.687c-7.752-12.554-14.694-25.866-21.221-40.957l-1.347-3.316-1.952-4.782c-5.456-13.797-9.962-28.094-13.399-42.58l-2.625-11.034-82.019 0 0-123.49 82.019 0 2.625-11.051c3.453-14.486 7.959-28.818 14.141-44.411l1.175-2.883 2.038-4.801c5.853-13.537 12.795-26.851 20.616-39.559l5.957-9.651-58-57.982 87.354-87.336 58 57.981 9.687-5.956c12.675-7.805 25.987-14.712 40.854-21.151l3.488-1.468 4.816-1.934c13.711-5.456 28.024-9.946 42.494-13.398l11.068-2.607 0-82.019 123.544 0 0 82.019 11.068 2.607c14.471 3.419 28.768 7.942 44.428 14.124l3.055 1.26 4.611 1.969c13.572 5.87 26.883 12.777 39.559 20.6l9.686 5.957 58-57.982 87.354 87.336-58 57.982 5.959 9.651c7.77 12.622 14.693 25.936 21.254 41.096l3.316 8.012c5.473 13.848 9.98 28.145 13.398 42.528l2.607 11.068L902.1 450.263l0 123.494-0.016-0.001L902.084 573.754zM511.972 336.818c-96.626 0-175.259 78.581-175.259 175.189s78.617 175.208 175.259 175.208c96.643 0 175.243-78.6 175.243-175.208S608.615 336.818 511.972 336.818zM511.972 658.448c-80.774 0-146.475-65.719-146.475-146.44 0-80.74 65.718-146.424 146.475-146.424 80.756 0 146.475 65.684 146.475 146.424S592.73 658.448 511.972 658.448z" fill="#a9b7b7"></path></g></g></svg>