<?xml version="1.0" standalone="no"?><!DOCTYPE svg PUBLIC "-//W3C//DTD SVG 1.1//EN" "http://www.w3.org/Graphics/SVG/1.1/DTD/svg11.dtd"><svg width="200" height="200" viewBox="0 0 200 200" version="1.1" xmlns="http://www.w3.org/2000/svg" xmlns:xlink="http://www.w3.org/1999/xlink"><defs><style type="text/css"><![CDATA[
@font-face { font-family: ifont; src: url("http://at.alicdn.com/t/font_1442373896_4754455.eot?#iefix") format("embedded-opentype"), url("http://at.alicdn.com/t/font_1442373896_4754455.woff") format("woff"), url("http://at.alicdn.com/t/font_1442373896_4754455.ttf") format("truetype"), url("http://at.alicdn.com/t/font_1442373896_4754455.svg#ifont") format("svg"); }

]]></style></defs><g class="transform-group"><g transform="scale(0.1953125, 0.1953125)"><path d="M138.898978 578.779939c-31.677467 78.904071-36.918841 154.138566-11.405771 168.116929 17.649985 9.699919 45.131897-12.492522 70.999031-52.862975 10.263761 44.213991 35.560914 83.884502 71.736834 115.953895-37.879726 14.765285-62.696947 38.883589-62.696947 66.146513 0 44.913932 67.021439 81.175811 149.682068 81.175811 74.577532 0 136.356574-29.446659 147.757229-68.24429 3.016707 0 14.859429 0 17.740036 0 11.621688 38.797631 73.266677 68.24429 147.932214 68.24429 82.751702 0 149.682068-36.262902 149.682068-81.175811 0-27.262924-24.772196-51.205219-62.74095-66.146513 36.045961-32.069393 61.517075-71.738881 71.695902-115.953895 25.862018 40.370453 53.214992 62.563918 70.954005 52.862975 25.64303-13.978363 20.531616-89.212858-11.449773-168.116929-24.987091-61.778019-58.848293-107.389846-84.670401-117.612675 0.349971-3.756557 0.655939-7.909134 0.655939-11.884678 0-23.942295-6.378268-46.048779-17.253966-64.049758 0.217964-1.440815 0.217964-2.795673 0.217964-4.236488 0-11.053754-2.491751-21.321608-6.77224-30.191626C774.452969 189.983959 674.97021 62.1065 513.887488 62.1065c-161.042813 0-260.655532 127.878482-267.164782 288.700261-4.192485 8.999978-6.771217 19.311835-6.771217 30.321586 0 1.442862 0 2.795673 0.174985 4.238534-10.658757 17.868973-17.039072 39.974433-17.039072 64.004733 0 4.02057 0.216941 8.040117 0.480954 11.971659C197.836299 471.478098 163.845137 517.001921 138.898978 578.779939z" fill="#272636"></path></g></g></svg>