<?xml version="1.0" standalone="no"?><!DOCTYPE svg PUBLIC "-//W3C//DTD SVG 1.1//EN" "http://www.w3.org/Graphics/SVG/1.1/DTD/svg11.dtd"><svg width="16" height="16" viewBox="0 0 16 16" version="1.1" xmlns="http://www.w3.org/2000/svg" xmlns:xlink="http://www.w3.org/1999/xlink"><defs><style type="text/css"><![CDATA[
@font-face { font-family: ifont; src: url("http://at.alicdn.com/t/font_1442373896_4754455.eot?#iefix") format("embedded-opentype"), url("http://at.alicdn.com/t/font_1442373896_4754455.woff") format("woff"), url("http://at.alicdn.com/t/font_1442373896_4754455.ttf") format("truetype"), url("http://at.alicdn.com/t/font_1442373896_4754455.svg#ifont") format("svg"); }

]]></style></defs><g class="transform-group"><g transform="scale(0.015625, 0.015625)"><path d="M477.952 620.672l57.28 0 0 53.76-57.28 0 0-53.76ZM528.192 318.464 521.664 318.336c-68.288 0-109.76 31.04-126.528 94.784l52.16 10.432c12.736-49.536 43.648-60.288 68.096-60.288L518.4 363.328c30.784 2.816 48.96 19.648 53.12 48.704C572.992 436.416 557.888 459.84 525.568 484.48 495.872 504.256 482.176 528.768 483.264 559.744l0 10.432 44.928 0L528.192 565.376C525.44 540.16 541.184 516.352 575.04 495.552c39.488-26.368 57.792-56 55.68-90.432C625.28 350.208 591.744 321.728 528.192 318.464zM512 59.136c-282.304 0-512 186.176-512 414.976 0 129.088 75.392 251.648 202.304 330.048-15.616 52.352-43.84 110.912-92.736 117.76l-62.08 8.64 58.816 21.504c1.472 0.512 35.84 12.864 90.048 12.864 57.28 0 144.832-14.208 238.784-80.896 27.456 3.392 52.672 5.12 76.864 5.12 282.304 0 512-186.176 512-414.976C1024 245.312 794.304 59.136 512 59.136zM512 857.792c-24.576 0-50.432-1.856-78.912-5.632L426.88 851.328 421.824 855.04c-89.024 64.96-171.776 78.592-225.472 78.592-12.544 0-23.872-0.704-33.792-1.856 31.424-24.32 56.256-68.544 73.088-130.816l3.136-11.52L228.48 783.424c-123.52-72.32-197.248-187.968-197.248-309.312 0-211.584 215.68-383.744 480.768-383.744s480.768 172.16 480.768 383.744C992.768 685.696 777.088 857.792 512 857.792z" fill="#a9b7b7"></path></g></g></svg>