<?xml version="1.0" standalone="no"?><!DOCTYPE svg PUBLIC "-//W3C//DTD SVG 1.1//EN" "http://www.w3.org/Graphics/SVG/1.1/DTD/svg11.dtd"><svg width="256.25" height="200" viewBox="0 0 256.25 200" version="1.1" xmlns="http://www.w3.org/2000/svg" xmlns:xlink="http://www.w3.org/1999/xlink"><defs><style type="text/css"><![CDATA[
@font-face { font-family: ifont; src: url("http://at.alicdn.com/t/font_1442373896_4754455.eot?#iefix") format("embedded-opentype"), url("http://at.alicdn.com/t/font_1442373896_4754455.woff") format("woff"), url("http://at.alicdn.com/t/font_1442373896_4754455.ttf") format("truetype"), url("http://at.alicdn.com/t/font_1442373896_4754455.svg#ifont") format("svg"); }

]]></style></defs><g class="transform-group"><g transform="scale(0.1953125, 0.1953125)"><path d="M654.449201 0C372.177046 0 142.499826 196.88101 142.499826 438.756964c0 122.88735 61.293675 238.975958 169.483543 323.167106l125.787346 97.591131c-3.699995 20.797475-19.698726 69.493665-37.796204 114.088611-5.699993 13.798733-2.299997 29.697464 8.39874 40.096201 6.999991 6.698742 16.19873 10.298737 25.497469 10.298737 4.999994 0 9.998738-0.999999 14.898732-3.098746 41.696199-18.598727 143.086075-68.193667 214.377238-143.586075 278.27341-3.998745 503.251886-198.981007 503.251886-438.456965C1166.398576 196.88101 936.721357 0 654.449201 0L654.449201 0zM652.549203 802.82027c-2.299997 0-2.299997 0-4.399995 0.4-15.597481 1.799998-35.196207 22.897472-35.196207 22.897472s-64.593671 64.693671-118.687355 95.491133c19.797476-65.993669 16.29748-90.28989 9.998738-99.689878-1.599998-2.399997-3.299996-4.299995-5.399993-5.699993l0.1-0.1c0 0-0.499999-0.3-1.399998-0.701249-0.499999-0.3-0.899999-0.498749-1.499998-0.799999-16.49748-8.798739-102.289875-56.593681-171.98229-123.487349-67.693667-71.092413-104.889872-166.383547-104.889872-251.874693 0-199.981006 195.281012-362.664557 435.256969-362.664557s435.256969 162.683551 435.256969 362.664557C1089.70617 639.23672 892.52516 802.82027 652.549203 802.82027L652.549203 802.82027zM607.948008 642.521716l82.09115 0 0 82.09115-82.09115 0 0-82.09115ZM776.872802 218.150984c-31.621211-28.899965-74.461159-43.553697-127.333595-43.553697-49.951189 0-90.756139 13.659983-121.282352 40.5987-30.529963 26.946217-49.12744 66.178669-55.273683 116.611108l-0.454999 3.732495 74.636159 8.876239 0.559999-3.568746c5.662493-36.097456 17.641228-62.916173 35.606207-79.711153 17.871228-16.71248 40.514951-25.186219 67.299918-25.186219 27.721216 0 51.449937 9.376239 70.523664 27.868716 19.042477 18.464977 28.698715 40.146201 28.698715 64.439921 0 13.337484-3.261246 25.811218-9.693738 37.072455-6.556242 11.471236-21.171224 27.249967-43.436197 46.897443-22.689972 20.018726-38.674953 35.518707-47.523692 46.081194-12.101235 14.572482-21.002474 29.254964-26.442468 43.606197-7.413741 19.031227-11.172486 41.892449-11.172486 67.947417 0 4.438745 0.1225 11.084986 0.365 19.753726l0.1025 3.644996 70.276164 0 0.0675-3.679996c0.476249-25.768719 2.267497-44.559946 5.328743-55.853682 3.011246-11.131236 7.709991-21.122474 13.963733-29.694964 6.374992-8.731239 20.271225-22.608722 41.30245-41.2487 31.947461-28.289965 53.759934-52.738686 64.829921-72.666161 11.178736-20.122475 16.847479-42.402448 16.847479-66.224919C824.667743 282.717155 808.587763 247.140948 776.872802 218.150984z" fill="#272636"></path></g></g></svg>