<?xml version="1.0" standalone="no"?><!DOCTYPE svg PUBLIC "-//W3C//DTD SVG 1.1//EN" "http://www.w3.org/Graphics/SVG/1.1/DTD/svg11.dtd"><svg width="16" height="16" viewBox="0 0 16 16" version="1.1" xmlns="http://www.w3.org/2000/svg" xmlns:xlink="http://www.w3.org/1999/xlink"><defs><style type="text/css"><![CDATA[
@font-face { font-family: ifont; src: url("http://at.alicdn.com/t/font_1442373896_4754455.eot?#iefix") format("embedded-opentype"), url("http://at.alicdn.com/t/font_1442373896_4754455.woff") format("woff"), url("http://at.alicdn.com/t/font_1442373896_4754455.ttf") format("truetype"), url("http://at.alicdn.com/t/font_1442373896_4754455.svg#ifont") format("svg"); }

]]></style></defs><g class="transform-group"><g transform="scale(0.015625, 0.015625)"><path d="M653.04576 213.56544c-7.63904-2.92864-16.9984 0.57344-19.92704 8.76544-3.52256 7.61856 0.59392 16.97792 8.192 19.90656 63.20128 25.74336 116.44928 70.22592 153.88672 125.80864 36.27008 54.39488 57.36448 119.35744 57.36448 189.58336 0 94.208-38.03136 179.03616-99.47136 240.47616C691.03616 860.16 606.208 898.19136 512 898.19136c-94.22848 0-179.05664-38.03136-240.49664-100.08576-62.03392-61.44-100.06528-146.28864-100.06528-240.47616 0-67.8912 19.88608-131.072 53.82144-184.32 35.10272-54.41536 86.016-98.304 145.69472-125.80864 7.61856-3.50208 11.12064-12.86144 7.61856-20.48-3.50208-7.59808-12.86144-11.10016-20.48-7.59808-65.536 29.83936-120.54528 77.824-158.57664 137.50272-37.45792 57.91744-59.10528 126.95552-59.10528 200.704 0 102.4 41.53344 195.44064 108.83072 262.71744C316.57984 887.64416 409.6 929.19808 512 929.19808c102.4 0 195.42016-41.55392 262.71744-108.83072 67.31776-67.2768 108.83072-160.31744 108.83072-262.71744 0-76.67712-22.79424-147.47648-62.60736-206.56128C780.00128 290.22208 722.08384 242.23744 653.04576 213.56544L653.04576 213.56544zM527.19616 110.57152c0-8.78592-7.00416-15.79008-15.79008-15.79008-8.17152 0-15.21664 7.02464-15.21664 15.79008l0 231.71072c0 8.76544 7.02464 15.79008 15.21664 15.79008 8.78592 0 15.79008-7.02464 15.79008-15.79008L527.19616 110.57152z" fill="#a9b7b7"></path></g></g></svg>