<?xml version="1.0" standalone="no"?><!DOCTYPE svg PUBLIC "-//W3C//DTD SVG 1.1//EN" "http://www.w3.org/Graphics/SVG/1.1/DTD/svg11.dtd"><svg width="200.1953125" height="200" viewBox="0 0 200.1953125 200" version="1.1" xmlns="http://www.w3.org/2000/svg" xmlns:xlink="http://www.w3.org/1999/xlink"><defs><style type="text/css"><![CDATA[
@font-face { font-family: ifont; src: url("http://at.alicdn.com/t/font_1442373896_4754455.eot?#iefix") format("embedded-opentype"), url("http://at.alicdn.com/t/font_1442373896_4754455.woff") format("woff"), url("http://at.alicdn.com/t/font_1442373896_4754455.ttf") format("truetype"), url("http://at.alicdn.com/t/font_1442373896_4754455.svg#ifont") format("svg"); }

]]></style></defs><g class="transform-group"><g transform="scale(0.1953125, 0.1953125)"><path d="M739.09248 491.80672c0 0 133.90848-237.63968-253.3888-112.90624 48.55808-38.0416 40.704-115.5584 2.60096-143.08352C346.5216 133.39648 0 460.29824 0 654.60224c0 118.13888 127.32416 271.73888 417.44384 271.73888 365.0048 0 479.1808-199.54688 479.1808-296.67328C896.63488 495.72864 739.09248 491.80672 739.09248 491.80672L739.09248 491.80672zM429.44512 875.23328C259.4304 891.0848 112.90624 810.4448 102.21568 695.0912 91.40224 579.76832 220.5184 473.42592 390.56384 457.60512c170.02496-15.8208 316.55936 64.79872 327.29088 180.13184C728.576 753.07008 599.51104 859.41248 429.44512 875.23328L429.44512 875.23328zM429.44512 875.23328M369.41824 540.8256c-92.06784 15.58528-155.86304 92.19072-142.4896 170.98752 13.34272 78.848 98.75456 130.1504 190.8224 114.5856 92.01664-15.58528 155.82208-92.12928 142.49984-170.99776C546.85696 576.5632 461.48608 525.29152 369.41824 540.8256L369.41824 540.8256zM353.40288 765.7472c-29.73696 8.16128-59.9552-7.28064-67.49184-34.5088-7.46496-27.32032 10.56768-56.04352 40.27392-64.23552 29.7472-8.20224 59.9552 7.24992 67.46112 34.5088C401.14176 728.7808 383.15008 757.51424 353.40288 765.7472L353.40288 765.7472zM430.6432 678.20544c-15.28832 0-27.68896-12.36992-27.68896-27.65824 0-15.26784 12.40064-27.65824 27.68896-27.65824 15.27808 0 27.648 12.42112 27.648 27.65824C458.2912 665.83552 445.92128 678.20544 430.6432 678.20544L430.6432 678.20544zM430.6432 678.20544M967.49568 197.1712C906.38336 119.05024 808.448 85.16608 691.80416 101.7856c-19.67104 2.78528-33.37216 21.00224-30.55616 40.68352 2.77504 19.63008 20.92032 33.26976 40.67328 30.5152 115.5072-16.47616 177.39776 28.14976 208.96768 68.51584 41.45152 53.05344 53.1456 128.64512 29.09184 188.06784-7.46496 18.41152 1.39264 39.40352 19.82464 46.848 4.44416 1.78176 8.98048 2.64192 13.49632 2.64192 14.19264 0 27.648-8.47872 33.32096-22.44608C1040.04608 374.09792 1024.33792 269.85472 967.49568 197.1712L967.49568 197.1712zM967.49568 197.1712M726.3744 232.31488c-19.58912 2.80576-33.28 21.02272-30.47424 40.67328 2.79552 19.64032 20.92032 33.28 40.66304 30.5152 33.05472-4.74112 58.78784 3.20512 74.22976 22.94784 13.91616 17.83808 18.04288 44.01152 10.11712 63.70304-7.46496 18.41152 1.4336 39.3728 19.82464 46.83776 4.48512 1.792 8.98048 2.63168 13.49632 2.63168 14.19264 0 27.68896-8.47872 33.32096-22.44608 17.73568-43.7248 9.8304-96.70656-20.10112-135.00416C849.07008 258.63168 806.2976 220.8768 726.3744 232.31488L726.3744 232.31488zM726.3744 232.31488" fill="#272636"></path></g></g></svg>